<mxfile modified="2024-06-04T10:33:04.594Z" host="Electron" agent="Mozilla/5.0 (Windows NT 10.0; Win64; x64) AppleWebKit/537.36 (KHTML, like Gecko) draw.io/24.4.8 Chrome/124.0.6367.207 Electron/30.0.6 Safari/537.36" etag="SayRGnJSTNfEcK9Fc76D" version="24.4.8" type="device">
  <diagram id="Ht1M8jgEwFfnCIfOTk4-" name="Page-1">
    <mxGraphModel dx="3154" dy="1782" grid="1" gridSize="10" guides="1" tooltips="1" connect="1" arrows="1" fold="1" page="1" pageScale="1" pageWidth="1169" pageHeight="827" math="0" shadow="0">
      <root>
        <mxCell id="0" />
        <mxCell id="1" parent="0" />
        <mxCell id="CIbjASSqVEmHf6VU39b6-3" value="VPC" style="points=[[0,0],[0.25,0],[0.5,0],[0.75,0],[1,0],[1,0.25],[1,0.5],[1,0.75],[1,1],[0.75,1],[0.5,1],[0.25,1],[0,1],[0,0.75],[0,0.5],[0,0.25]];outlineConnect=0;gradientColor=none;html=1;whiteSpace=wrap;fontSize=12;fontStyle=0;container=1;pointerEvents=0;collapsible=0;recursiveResize=0;shape=mxgraph.aws4.group;grIcon=mxgraph.aws4.group_vpc2;strokeColor=#8C4FFF;fillColor=none;verticalAlign=top;align=left;spacingLeft=30;fontColor=#AAB7B8;dashed=0;" parent="1" vertex="1">
          <mxGeometry x="140" y="50" width="1660" height="830" as="geometry" />
        </mxCell>
        <mxCell id="w6uRUPH8nC-psdMti6wa-21" style="edgeStyle=orthogonalEdgeStyle;rounded=0;orthogonalLoop=1;jettySize=auto;html=1;" edge="1" parent="CIbjASSqVEmHf6VU39b6-3" source="w6uRUPH8nC-psdMti6wa-10" target="w6uRUPH8nC-psdMti6wa-11">
          <mxGeometry relative="1" as="geometry">
            <Array as="points">
              <mxPoint x="1080" y="380" />
              <mxPoint x="1080" y="380" />
            </Array>
          </mxGeometry>
        </mxCell>
        <mxCell id="w6uRUPH8nC-psdMti6wa-10" value="" style="outlineConnect=0;dashed=0;verticalLabelPosition=bottom;verticalAlign=top;align=center;html=1;shape=mxgraph.aws3.elastic_beanstalk;fillColor=#F58534;gradientColor=none;" vertex="1" parent="CIbjASSqVEmHf6VU39b6-3">
          <mxGeometry x="233" y="310" width="67.5" height="93" as="geometry" />
        </mxCell>
        <mxCell id="w6uRUPH8nC-psdMti6wa-11" value="" style="outlineConnect=0;dashed=0;verticalLabelPosition=bottom;verticalAlign=top;align=center;html=1;shape=mxgraph.aws3.elastic_beanstalk;fillColor=#F58534;gradientColor=none;" vertex="1" parent="CIbjASSqVEmHf6VU39b6-3">
          <mxGeometry x="1330" y="317" width="67.5" height="93" as="geometry" />
        </mxCell>
        <mxCell id="w6uRUPH8nC-psdMti6wa-13" value="Backend" style="text;html=1;align=center;verticalAlign=middle;resizable=0;points=[];autosize=1;strokeColor=none;fillColor=none;" vertex="1" parent="CIbjASSqVEmHf6VU39b6-3">
          <mxGeometry x="1330" y="428" width="70" height="30" as="geometry" />
        </mxCell>
        <mxCell id="w6uRUPH8nC-psdMti6wa-32" value="Use endpoint to avoid using public ips" style="text;html=1;align=center;verticalAlign=middle;resizable=0;points=[];autosize=1;strokeColor=none;fillColor=none;" vertex="1" parent="CIbjASSqVEmHf6VU39b6-3">
          <mxGeometry x="1440" y="48" width="220" height="30" as="geometry" />
        </mxCell>
        <mxCell id="CIbjASSqVEmHf6VU39b6-10" value="" style="sketch=0;points=[[0,0,0],[0.25,0,0],[0.5,0,0],[0.75,0,0],[1,0,0],[0,1,0],[0.25,1,0],[0.5,1,0],[0.75,1,0],[1,1,0],[0,0.25,0],[0,0.5,0],[0,0.75,0],[1,0.25,0],[1,0.5,0],[1,0.75,0]];outlineConnect=0;fontColor=#232F3E;fillColor=#DD344C;strokeColor=#ffffff;dashed=0;verticalLabelPosition=bottom;verticalAlign=top;align=center;html=1;fontSize=12;fontStyle=0;aspect=fixed;shape=mxgraph.aws4.resourceIcon;resIcon=mxgraph.aws4.cognito;" parent="1" vertex="1">
          <mxGeometry x="460" y="-130" width="78" height="78" as="geometry" />
        </mxCell>
        <mxCell id="CIbjASSqVEmHf6VU39b6-13" value="" style="outlineConnect=0;dashed=0;verticalLabelPosition=bottom;verticalAlign=top;align=center;html=1;shape=mxgraph.aws3.dynamo_db;fillColor=#2E73B8;gradientColor=none;" parent="1" vertex="1">
          <mxGeometry x="1421" y="-413" width="72" height="81" as="geometry" />
        </mxCell>
        <mxCell id="CIbjASSqVEmHf6VU39b6-15" value="dynamo db" style="text;html=1;align=center;verticalAlign=middle;resizable=0;points=[];autosize=1;strokeColor=none;fillColor=none;" parent="1" vertex="1">
          <mxGeometry x="1417" y="-323" width="80" height="30" as="geometry" />
        </mxCell>
        <mxCell id="w6uRUPH8nC-psdMti6wa-25" style="edgeStyle=orthogonalEdgeStyle;rounded=0;orthogonalLoop=1;jettySize=auto;html=1;" edge="1" parent="1" source="CIbjASSqVEmHf6VU39b6-16" target="w6uRUPH8nC-psdMti6wa-12">
          <mxGeometry relative="1" as="geometry" />
        </mxCell>
        <mxCell id="w6uRUPH8nC-psdMti6wa-26" style="edgeStyle=orthogonalEdgeStyle;rounded=0;orthogonalLoop=1;jettySize=auto;html=1;" edge="1" parent="1" source="CIbjASSqVEmHf6VU39b6-16" target="w6uRUPH8nC-psdMti6wa-13">
          <mxGeometry relative="1" as="geometry" />
        </mxCell>
        <mxCell id="CIbjASSqVEmHf6VU39b6-16" value="Amazon ECR" style="sketch=0;outlineConnect=0;fontColor=#232F3E;gradientColor=none;strokeColor=#ffffff;fillColor=#232F3E;dashed=0;verticalLabelPosition=middle;verticalAlign=bottom;align=center;html=1;whiteSpace=wrap;fontSize=10;fontStyle=1;spacing=3;shape=mxgraph.aws4.productIcon;prIcon=mxgraph.aws4.ecr;" parent="1" vertex="1">
          <mxGeometry x="870" y="930" width="80" height="100" as="geometry" />
        </mxCell>
        <mxCell id="7nQa-4i7Prz5Y4lBVQdQ-7" value="" style="sketch=0;points=[[0,0,0],[0.25,0,0],[0.5,0,0],[0.75,0,0],[1,0,0],[0,1,0],[0.25,1,0],[0.5,1,0],[0.75,1,0],[1,1,0],[0,0.25,0],[0,0.5,0],[0,0.75,0],[1,0.25,0],[1,0.5,0],[1,0.75,0]];outlineConnect=0;fontColor=#232F3E;fillColor=#E7157B;strokeColor=#ffffff;dashed=0;verticalLabelPosition=bottom;verticalAlign=top;align=center;html=1;fontSize=12;fontStyle=0;aspect=fixed;shape=mxgraph.aws4.resourceIcon;resIcon=mxgraph.aws4.sns;" parent="1" vertex="1">
          <mxGeometry x="1421" y="-262" width="78" height="78" as="geometry" />
        </mxCell>
        <mxCell id="w6uRUPH8nC-psdMti6wa-1" value="&lt;b&gt;TODO&lt;/b&gt;:&amp;nbsp;&lt;br&gt;&lt;ul&gt;&lt;li&gt;ASK&amp;nbsp; about additional permissions in order to create domain and request certificate.&lt;/li&gt;&lt;li&gt;Ask for verification of this scheme&lt;/li&gt;&lt;li&gt;Show we call sns directly from lambda function&lt;/li&gt;&lt;li&gt;Is it ok that lambda is inside private network&lt;/li&gt;&lt;li&gt;Ask about grade from labs,deadline&lt;/li&gt;&lt;/ul&gt;" style="text;html=1;align=center;verticalAlign=middle;whiteSpace=wrap;rounded=0;" vertex="1" parent="1">
          <mxGeometry x="-650" y="414" width="250" height="276" as="geometry" />
        </mxCell>
        <mxCell id="w6uRUPH8nC-psdMti6wa-2" value="&lt;b&gt;STEPS&lt;/b&gt;:&lt;div&gt;Modify backend and frontend so the images are ready and can be pushed into ecr&lt;/div&gt;&lt;div&gt;&lt;br&gt;&lt;/div&gt;&lt;div&gt;Start with creating each service separately with terraform. And firstly leave backend and frontend running locally&lt;/div&gt;&lt;div&gt;&lt;br&gt;&lt;/div&gt;&lt;div&gt;Then deploy entire infrastructure&lt;/div&gt;" style="text;html=1;align=center;verticalAlign=middle;resizable=0;points=[];autosize=1;strokeColor=none;fillColor=none;" vertex="1" parent="1">
          <mxGeometry x="-570" y="713" width="620" height="100" as="geometry" />
        </mxCell>
        <mxCell id="w6uRUPH8nC-psdMti6wa-3" value="Drop hosted ui and than there is no problem with https&lt;div&gt;&lt;br&gt;&lt;/div&gt;" style="text;html=1;align=center;verticalAlign=middle;whiteSpace=wrap;rounded=0;" vertex="1" parent="1">
          <mxGeometry x="-580" y="1" width="60" height="30" as="geometry" />
        </mxCell>
        <mxCell id="w6uRUPH8nC-psdMti6wa-4" value="Coomunication between frontend and backend" style="text;html=1;align=center;verticalAlign=middle;resizable=0;points=[];autosize=1;strokeColor=none;fillColor=none;" vertex="1" parent="1">
          <mxGeometry x="-585" y="188" width="270" height="30" as="geometry" />
        </mxCell>
        <mxCell id="w6uRUPH8nC-psdMti6wa-5" value="move backend to public subnet" style="text;html=1;align=center;verticalAlign=middle;resizable=0;points=[];autosize=1;strokeColor=none;fillColor=none;" vertex="1" parent="1">
          <mxGeometry x="-395" y="348" width="190" height="30" as="geometry" />
        </mxCell>
        <mxCell id="CIbjASSqVEmHf6VU39b6-11" value="Amazon S3" style="sketch=0;outlineConnect=0;fontColor=#232F3E;gradientColor=none;strokeColor=#ffffff;fillColor=#232F3E;dashed=0;verticalLabelPosition=middle;verticalAlign=bottom;align=center;html=1;whiteSpace=wrap;fontSize=10;fontStyle=1;spacing=3;shape=mxgraph.aws4.productIcon;prIcon=mxgraph.aws4.s3;" parent="1" vertex="1">
          <mxGeometry x="1960" y="364" width="80" height="100" as="geometry" />
        </mxCell>
        <mxCell id="w6uRUPH8nC-psdMti6wa-6" value="Cloudfront" style="text;html=1;align=center;verticalAlign=middle;resizable=0;points=[];autosize=1;strokeColor=none;fillColor=none;" vertex="1" parent="1">
          <mxGeometry x="-280" y="-62" width="80" height="30" as="geometry" />
        </mxCell>
        <mxCell id="w6uRUPH8nC-psdMti6wa-12" value="Frontend" style="text;html=1;align=center;verticalAlign=middle;resizable=0;points=[];autosize=1;strokeColor=none;fillColor=none;" vertex="1" parent="1">
          <mxGeometry x="365" y="468" width="70" height="30" as="geometry" />
        </mxCell>
        <mxCell id="w6uRUPH8nC-psdMti6wa-14" value="" style="outlineConnect=0;dashed=0;verticalLabelPosition=bottom;verticalAlign=top;align=center;html=1;shape=mxgraph.aws3.lambda_function;fillColor=#F58534;gradientColor=none;" vertex="1" parent="1">
          <mxGeometry x="1081" y="-259" width="69" height="72" as="geometry" />
        </mxCell>
        <mxCell id="w6uRUPH8nC-psdMti6wa-15" style="edgeStyle=orthogonalEdgeStyle;rounded=0;orthogonalLoop=1;jettySize=auto;html=1;entryX=0;entryY=0.5;entryDx=0;entryDy=0;entryPerimeter=0;" edge="1" parent="1" source="w6uRUPH8nC-psdMti6wa-14" target="7nQa-4i7Prz5Y4lBVQdQ-7">
          <mxGeometry relative="1" as="geometry" />
        </mxCell>
        <mxCell id="w6uRUPH8nC-psdMti6wa-16" style="edgeStyle=orthogonalEdgeStyle;rounded=0;orthogonalLoop=1;jettySize=auto;html=1;entryX=0;entryY=0.5;entryDx=0;entryDy=0;entryPerimeter=0;" edge="1" parent="1" source="w6uRUPH8nC-psdMti6wa-14" target="CIbjASSqVEmHf6VU39b6-13">
          <mxGeometry relative="1" as="geometry">
            <Array as="points">
              <mxPoint x="1115" y="-372" />
            </Array>
          </mxGeometry>
        </mxCell>
        <mxCell id="w6uRUPH8nC-psdMti6wa-17" value="SNS" style="text;html=1;align=center;verticalAlign=middle;resizable=0;points=[];autosize=1;strokeColor=none;fillColor=none;" vertex="1" parent="1">
          <mxGeometry x="1444" y="-160" width="50" height="30" as="geometry" />
        </mxCell>
        <mxCell id="w6uRUPH8nC-psdMti6wa-22" style="edgeStyle=orthogonalEdgeStyle;rounded=0;orthogonalLoop=1;jettySize=auto;html=1;" edge="1" parent="1" source="w6uRUPH8nC-psdMti6wa-11" target="CIbjASSqVEmHf6VU39b6-11">
          <mxGeometry relative="1" as="geometry" />
        </mxCell>
        <mxCell id="w6uRUPH8nC-psdMti6wa-23" style="edgeStyle=orthogonalEdgeStyle;rounded=0;orthogonalLoop=1;jettySize=auto;html=1;entryX=0;entryY=0.5;entryDx=0;entryDy=0;entryPerimeter=0;" edge="1" parent="1" source="w6uRUPH8nC-psdMti6wa-10" target="CIbjASSqVEmHf6VU39b6-10">
          <mxGeometry relative="1" as="geometry">
            <Array as="points">
              <mxPoint x="440" y="-91" />
            </Array>
          </mxGeometry>
        </mxCell>
        <mxCell id="w6uRUPH8nC-psdMti6wa-30" style="edgeStyle=orthogonalEdgeStyle;rounded=0;orthogonalLoop=1;jettySize=auto;html=1;" edge="1" parent="1" source="w6uRUPH8nC-psdMti6wa-28" target="w6uRUPH8nC-psdMti6wa-14">
          <mxGeometry relative="1" as="geometry" />
        </mxCell>
        <mxCell id="w6uRUPH8nC-psdMti6wa-28" value="" style="sketch=0;points=[[0,0,0],[0.25,0,0],[0.5,0,0],[0.75,0,0],[1,0,0],[0,1,0],[0.25,1,0],[0.5,1,0],[0.75,1,0],[1,1,0],[0,0.25,0],[0,0.5,0],[0,0.75,0],[1,0.25,0],[1,0.5,0],[1,0.75,0]];outlineConnect=0;fontColor=#232F3E;fillColor=#8C4FFF;strokeColor=#ffffff;dashed=0;verticalLabelPosition=bottom;verticalAlign=top;align=center;html=1;fontSize=12;fontStyle=0;aspect=fixed;shape=mxgraph.aws4.resourceIcon;resIcon=mxgraph.aws4.api_gateway;" vertex="1" parent="1">
          <mxGeometry x="1081" y="-86" width="78" height="78" as="geometry" />
        </mxCell>
        <mxCell id="w6uRUPH8nC-psdMti6wa-29" style="edgeStyle=orthogonalEdgeStyle;rounded=0;orthogonalLoop=1;jettySize=auto;html=1;entryX=0.5;entryY=1;entryDx=0;entryDy=0;entryPerimeter=0;" edge="1" parent="1" source="w6uRUPH8nC-psdMti6wa-11" target="w6uRUPH8nC-psdMti6wa-28">
          <mxGeometry relative="1" as="geometry">
            <Array as="points">
              <mxPoint x="1504" y="330" />
              <mxPoint x="1120" y="330" />
            </Array>
          </mxGeometry>
        </mxCell>
        <mxCell id="w6uRUPH8nC-psdMti6wa-31" style="edgeStyle=orthogonalEdgeStyle;rounded=0;orthogonalLoop=1;jettySize=auto;html=1;entryX=1;entryY=0.5;entryDx=0;entryDy=0;entryPerimeter=0;" edge="1" parent="1" source="w6uRUPH8nC-psdMti6wa-11" target="CIbjASSqVEmHf6VU39b6-13">
          <mxGeometry relative="1" as="geometry">
            <Array as="points">
              <mxPoint x="1570" y="414" />
              <mxPoint x="1570" y="-372" />
            </Array>
          </mxGeometry>
        </mxCell>
      </root>
    </mxGraphModel>
  </diagram>
</mxfile>
